<?xml version="1.0" encoding="utf-8"?>
<!-- Generator: Adobe Illustrator 16.0.0, SVG Export Plug-In . SVG Version: 6.00 Build 0)  -->
<!DOCTYPE svg PUBLIC "-//W3C//DTD SVG 1.1//EN" "http://www.w3.org/Graphics/SVG/1.1/DTD/svg11.dtd">
<svg version="1.1" id="Calque_1" xmlns="http://www.w3.org/2000/svg" xmlns:xlink="http://www.w3.org/1999/xlink" x="0px" y="0px"
	 width="512px" height="512px" viewBox="0 0 512 512" enable-background="new 0 0 512 512" xml:space="preserve">
<g>
	<path fill-rule="evenodd" clip-rule="evenodd" d="M50.073,256.799c0.25-113.613,92.741-206.026,206.193-206.019
		c113.767,0.007,206.141,92.674,205.873,206.525c-0.267,114.122-92.64,206.015-206.613,205.537
		C141.861,462.368,49.822,370.063,50.073,256.799z M230.26,214.504c0,3.718,0.009,6.983-0.001,10.249
		c-0.136,41.113-0.218,82.227-0.497,123.337c-0.029,4.198,0.939,5.758,5.414,5.645c11.802-0.296,23.625-0.298,35.427,0.002
		c4.465,0.113,5.406-1.444,5.375-5.615c-0.177-24.966-0.026-49.936-0.11-74.902c-0.026-7.671,3.052-13.852,8.189-19.249
		c9.762-10.257,33.967-11.537,39.533,10.142c1.319,5.149,1.875,10.617,1.923,15.945c0.205,23.023,0.152,46.047,0.023,69.072
		c-0.02,3.514,1.014,4.651,4.585,4.593c12.256-0.195,24.518-0.174,36.776-0.011c3.366,0.046,4.359-1.075,4.343-4.389
		c-0.133-26.909,0.072-53.822-0.271-80.729c-0.084-6.644-1.129-13.449-2.894-19.859c-5.455-19.801-17.827-33.046-38.538-36.744
		c-20.685-3.692-38.605,1.08-51.341,19.196c-0.438,0.623-1.132,1.067-2.428,2.26c0-6.855,0-12.771,0-18.944
		C260.426,214.504,245.55,214.504,230.26,214.504z M203.352,214.234c-14.272,0-27.703,0.127-41.127-0.083
		c-3.657-0.057-4.518,1.228-4.51,4.627c0.086,43.477,0.096,86.949-0.014,130.424c-0.009,3.659,1.293,4.543,4.704,4.494
		c11.8-0.166,23.612-0.308,35.402,0.057c4.755,0.147,5.654-1.479,5.638-5.854c-0.153-42.578-0.092-85.157-0.092-127.735
		C203.352,218.408,203.352,216.652,203.352,214.234z M180.752,146.841c-18.551,0.035-30.2,15.069-24.536,31.664
		c4.023,11.787,17.161,18.24,30.839,15.147c10.612-2.4,17.754-9.531,18.979-18.95C208.16,158.358,197.68,146.81,180.752,146.841z"/>
	<path fill-rule="evenodd" clip-rule="evenodd" fill="#FFFFFF" d="M230.26,214.504c15.29,0,30.166,0,45.51,0
		c0,6.173,0,12.089,0,18.944c1.296-1.193,1.99-1.637,2.428-2.26c12.735-18.116,30.656-22.889,51.341-19.196
		c20.711,3.698,33.083,16.943,38.538,36.744c1.765,6.41,2.81,13.216,2.894,19.859c0.343,26.906,0.138,53.819,0.271,80.729
		c0.017,3.313-0.977,4.435-4.343,4.389c-12.259-0.163-24.521-0.185-36.776,0.011c-3.571,0.059-4.604-1.079-4.585-4.593
		c0.129-23.025,0.182-46.049-0.023-69.072c-0.048-5.328-0.604-10.796-1.923-15.945c-5.566-21.679-29.771-20.399-39.533-10.142
		c-5.138,5.397-8.216,11.578-8.189,19.249c0.084,24.967-0.066,49.937,0.11,74.902c0.031,4.171-0.91,5.729-5.375,5.615
		c-11.803-0.3-23.625-0.298-35.427-0.002c-4.475,0.113-5.443-1.446-5.414-5.645c0.279-41.11,0.361-82.224,0.497-123.337
		C230.269,221.487,230.26,218.221,230.26,214.504z"/>
	<path fill-rule="evenodd" clip-rule="evenodd" fill="#FFFFFF" d="M203.352,214.234c0,2.417,0,4.174,0,5.93
		c0,42.578-0.061,85.157,0.092,127.735c0.016,4.376-0.883,6.002-5.638,5.854c-11.791-0.364-23.603-0.223-35.402-0.057
		c-3.41,0.049-4.713-0.835-4.704-4.494c0.11-43.475,0.1-86.947,0.014-130.424c-0.007-3.399,0.853-4.685,4.51-4.627
		C175.649,214.361,189.08,214.234,203.352,214.234z"/>
	<path fill-rule="evenodd" clip-rule="evenodd" fill="#FFFFFF" d="M180.752,146.841c16.928-0.031,27.408,11.518,25.283,27.861
		c-1.225,9.418-8.367,16.55-18.979,18.95c-13.678,3.093-26.816-3.36-30.839-15.147C150.552,161.909,162.201,146.876,180.752,146.841
		z"/>
</g>
</svg>
